<svg width="166" height="32" viewBox="0 0 166 32" fill="none" xmlns="http://www.w3.org/2000/svg">
<rect x="0.5" y="0.5" width="165" height="31" rx="15.5" stroke="url(#paint0_linear_6_3115)"/>
<path d="M18 26L22 18.5L14 17.5L26 6H28L24 13.5L32 14.5L20 26H18Z" fill="url(#paint1_linear_6_3115)"/>
<path d="M43.6157 21V10.8182H47.2449C48.0371 10.8182 48.6933 10.9624 49.2137 11.2507C49.734 11.5391 50.1235 11.9335 50.382 12.4339C50.6405 12.9311 50.7698 13.4912 50.7698 14.1143C50.7698 14.7408 50.6389 15.3042 50.377 15.8047C50.1185 16.3018 49.7274 16.6963 49.2037 16.9879C48.6834 17.2763 48.0288 17.4205 47.24 17.4205H44.7442V16.1179H47.1008C47.6012 16.1179 48.0073 16.0317 48.3188 15.8594C48.6304 15.6837 48.859 15.4451 49.0049 15.1435C49.1507 14.8419 49.2236 14.4988 49.2236 14.1143C49.2236 13.7299 49.1507 13.3885 49.0049 13.0902C48.859 12.7919 48.6287 12.5582 48.3138 12.3892C48.0023 12.2202 47.5913 12.1357 47.0809 12.1357H45.1519V21H43.6157ZM61.4152 15.9091C61.4152 16.9962 61.2164 17.9309 60.8186 18.7131C60.4209 19.492 59.8757 20.0919 59.183 20.5128C58.4936 20.9304 57.7097 21.1392 56.8314 21.1392C55.9498 21.1392 55.1626 20.9304 54.4699 20.5128C53.7805 20.0919 53.2369 19.4903 52.8392 18.7081C52.4415 17.9259 52.2426 16.9929 52.2426 15.9091C52.2426 14.822 52.4415 13.889 52.8392 13.1101C53.2369 12.3279 53.7805 11.728 54.4699 11.3104C55.1626 10.8894 55.9498 10.679 56.8314 10.679C57.7097 10.679 58.4936 10.8894 59.183 11.3104C59.8757 11.728 60.4209 12.3279 60.8186 13.1101C61.2164 13.889 61.4152 14.822 61.4152 15.9091ZM59.8939 15.9091C59.8939 15.0805 59.7597 14.3828 59.4912 13.8161C59.2261 13.246 58.8615 12.8151 58.3975 12.5234C57.9368 12.2285 57.4147 12.081 56.8314 12.081C56.2448 12.081 55.7211 12.2285 55.2604 12.5234C54.7997 12.8151 54.4351 13.246 54.1666 13.8161C53.9015 14.3828 53.7689 15.0805 53.7689 15.9091C53.7689 16.7377 53.9015 17.437 54.1666 18.0071C54.4351 18.5739 54.7997 19.0047 55.2604 19.2997C55.7211 19.5914 56.2448 19.7372 56.8314 19.7372C57.4147 19.7372 57.9368 19.5914 58.3975 19.2997C58.8615 19.0047 59.2261 18.5739 59.4912 18.0071C59.7597 17.437 59.8939 16.7377 59.8939 15.9091ZM65.2011 21L62.3772 10.8182H63.993L65.9767 18.7031H66.0711L68.1343 10.8182H69.7352L71.7984 18.7081H71.8928L73.8715 10.8182H75.4923L72.6634 21H71.1173L68.9745 13.3736H68.895L66.7522 21H65.2011ZM76.893 21V10.8182H83.2765V12.1406H78.4292V15.2429H82.9434V16.5604H78.4292V19.6776H83.3362V21H76.893ZM85.3286 21V10.8182H88.9578C89.7467 10.8182 90.4012 10.9541 90.9216 11.2259C91.4453 11.4976 91.8364 11.8738 92.0949 12.3544C92.3534 12.8317 92.4827 13.3835 92.4827 14.0099C92.4827 14.633 92.3518 15.1816 92.0899 15.6555C91.8314 16.1262 91.4403 16.4924 90.9166 16.7543C90.3963 17.0161 89.7417 17.147 88.9529 17.147H86.2036V15.8246H88.8137C89.3108 15.8246 89.7152 15.7533 90.0267 15.6108C90.3416 15.4683 90.5719 15.2611 90.7178 14.9893C90.8636 14.7176 90.9365 14.3911 90.9365 14.0099C90.9365 13.6255 90.8619 13.2924 90.7128 13.0107C90.567 12.7289 90.3366 12.5135 90.0218 12.3643C89.7102 12.2119 89.3009 12.1357 88.7938 12.1357H86.8648V21H85.3286ZM90.3548 16.4062L92.8705 21H91.1205L88.6546 16.4062H90.3548ZM94.352 21V10.8182H100.736V12.1406H95.8882V15.2429H100.402V16.5604H95.8882V19.6776H100.795V21H94.352ZM106.084 21H102.788V10.8182H106.188C107.186 10.8182 108.043 11.022 108.758 11.4297C109.474 11.834 110.023 12.4157 110.404 13.1747C110.789 13.9304 110.981 14.8369 110.981 15.8942C110.981 16.9548 110.787 17.8662 110.399 18.6286C110.015 19.3909 109.458 19.9775 108.729 20.3885C107.999 20.7962 107.118 21 106.084 21ZM104.324 19.6577H105.999C106.775 19.6577 107.419 19.5118 107.933 19.2202C108.447 18.9252 108.831 18.4993 109.087 17.9425C109.342 17.3823 109.469 16.6996 109.469 15.8942C109.469 15.0954 109.342 14.4176 109.087 13.8608C108.835 13.304 108.458 12.8814 107.958 12.593C107.458 12.3047 106.836 12.1605 106.094 12.1605H104.324V19.6577ZM116.596 21V10.8182H120.325C121.047 10.8182 121.646 10.9375 122.12 11.1761C122.594 11.4115 122.948 11.7313 123.184 12.1357C123.419 12.5367 123.536 12.9891 123.536 13.4929C123.536 13.9171 123.459 14.2751 123.303 14.5668C123.147 14.8551 122.938 15.0871 122.676 15.2628C122.418 15.4351 122.133 15.5611 121.821 15.6406V15.7401C122.159 15.7566 122.489 15.866 122.811 16.0682C123.135 16.267 123.404 16.5504 123.616 16.9183C123.828 17.2862 123.934 17.7337 123.934 18.2607C123.934 18.781 123.812 19.2483 123.566 19.6626C123.324 20.0736 122.95 20.4001 122.443 20.642C121.936 20.8807 121.288 21 120.499 21H116.596ZM118.132 19.6825H120.35C121.085 19.6825 121.612 19.54 121.931 19.255C122.249 18.9699 122.408 18.6136 122.408 18.1861C122.408 17.8646 122.327 17.5696 122.164 17.3011C122.002 17.0327 121.77 16.8189 121.468 16.6598C121.17 16.5007 120.815 16.4212 120.404 16.4212H118.132V19.6825ZM118.132 15.223H120.191C120.535 15.223 120.845 15.1567 121.12 15.0241C121.399 14.8916 121.619 14.706 121.782 14.4673C121.947 14.2254 122.03 13.9403 122.03 13.6122C122.03 13.1913 121.883 12.8383 121.588 12.5533C121.293 12.2682 120.84 12.1257 120.23 12.1257H118.132V15.223ZM124.971 10.8182H126.716L129.376 15.4467H129.485L132.145 10.8182H133.89L130.196 17.0028V21H128.665V17.0028L124.971 10.8182ZM139.905 21H138.275L141.939 10.8182H143.714L147.378 21H145.747L142.869 12.6676H142.789L139.905 21ZM140.179 17.0128H145.469V18.3054H140.179V17.0128ZM150.384 10.8182V21H148.848V10.8182H150.384Z" fill="url(#paint2_linear_6_3115)"/>
<defs>
<linearGradient id="paint0_linear_6_3115" x1="0" y1="16" x2="166" y2="16" gradientUnits="userSpaceOnUse">
<stop stop-color="#1452CA"/>
<stop offset="1" stop-color="#B150FC"/>
</linearGradient>
<linearGradient id="paint1_linear_6_3115" x1="14" y1="16" x2="32" y2="16" gradientUnits="userSpaceOnUse">
<stop stop-color="#1452CA"/>
<stop offset="1" stop-color="#B150FC"/>
</linearGradient>
<linearGradient id="paint2_linear_6_3115" x1="42" y1="16" x2="152" y2="16" gradientUnits="userSpaceOnUse">
<stop stop-color="#1452CA"/>
<stop offset="1" stop-color="#B150FC"/>
</linearGradient>
</defs>
</svg>
